# xmcd CD database file
#
# Track frame offsets:
#	150
#	20441
#	40659
#	71777
#	92620
#	113005
#	138375
#
# Disc length: 2857 seconds
#
# Revision: 0
# Processed by: cddbd v1.5.1PL0 Copyright (c) Steve Scherf et al.
# Submitted via: CDex 1.50
#
DISCID=550b2707
DTITLE=David Lanz - A Cup Of Moonlight
DYEAR=2003
DGENRE=New Age
TTITLE0=Lover's Tarot
TTITLE1=True Nature
TTITLE2=In Stillness
TTITLE3=A Song of Soul
TTITLE4=The Butterfly
TTITLE5=A Cup of Moonlight
TTITLE6=Heaven and Earth
EXTD=YEAR: 2003
EXTT0=
EXTT1=
EXTT2=
EXTT3=
EXTT4=
EXTT5=
EXTT6=
PLAYORDER=
